<svg width="333" height="309" viewBox="0 0 333 309" fill="none" xmlns="http://www.w3.org/2000/svg">
<rect width="333" height="309" rx="50" fill="#21C25E"/>
<path d="M59.1353 192.32V209.76C59.1353 210.133 59.3753 210.373 59.8553 210.48C61.6686 210.693 63.1086 210.8 64.1753 210.8C68.0153 210.8 70.9753 209.92 73.0553 208.16C75.1886 206.347 76.2553 203.84 76.2553 200.64C76.2553 194.293 72.2286 191.12 64.1753 191.12C62.842 191.12 61.3753 191.253 59.7753 191.52C59.3486 191.627 59.1353 191.893 59.1353 192.32ZM50.3353 240C49.1086 240 48.042 239.547 47.1353 238.64C46.2286 237.733 45.7753 236.667 45.7753 235.44V186.56C45.7753 185.28 46.202 184.133 47.0553 183.12C47.9086 182.107 48.9753 181.547 50.2553 181.44C54.7886 181.013 59.162 180.8 63.3753 180.8C80.442 180.8 88.9753 187.147 88.9753 199.84C88.9753 206.72 86.9753 211.947 82.9753 215.52C79.0286 219.04 73.2153 220.8 65.5353 220.8C63.5086 220.8 61.6153 220.72 59.8553 220.56C59.3753 220.56 59.1353 220.773 59.1353 221.2V235.44C59.1353 236.667 58.682 237.733 57.7753 238.64C56.8686 239.547 55.802 240 54.5753 240H50.3353ZM118.821 209.6C117.541 207.627 115.568 206.64 112.901 206.64C110.234 206.64 108.234 207.627 106.901 209.6C105.621 211.573 104.981 214.773 104.981 219.2C104.981 223.627 105.621 226.827 106.901 228.8C108.234 230.773 110.234 231.76 112.901 231.76C115.568 231.76 117.541 230.773 118.821 228.8C120.154 226.827 120.821 223.627 120.821 219.2C120.821 214.773 120.154 211.573 118.821 209.6ZM128.341 235.12C124.661 238.907 119.514 240.8 112.901 240.8C106.288 240.8 101.141 238.907 97.4609 235.12C93.7809 231.333 91.9409 226.027 91.9409 219.2C91.9409 212.373 93.7809 207.067 97.4609 203.28C101.141 199.493 106.288 197.6 112.901 197.6C119.514 197.6 124.661 199.493 128.341 203.28C132.021 207.067 133.861 212.373 133.861 219.2C133.861 226.027 132.021 231.333 128.341 235.12ZM154.576 240.8C149.883 240.8 146.469 239.493 144.336 236.88C142.256 234.267 141.216 229.787 141.216 223.44V202.96C141.216 201.733 141.669 200.667 142.576 199.76C143.483 198.853 144.549 198.4 145.776 198.4H149.296C150.523 198.4 151.589 198.853 152.496 199.76C153.403 200.667 153.856 201.733 153.856 202.96V222.56C153.856 225.653 154.256 227.787 155.056 228.96C155.909 230.08 157.349 230.64 159.376 230.64C161.243 230.64 162.949 229.893 164.496 228.4C166.043 226.853 166.816 225.2 166.816 223.44V202.96C166.816 201.733 167.269 200.667 168.176 199.76C169.083 198.853 170.149 198.4 171.376 198.4H175.216C176.443 198.4 177.509 198.853 178.416 199.76C179.323 200.667 179.776 201.733 179.776 202.96V235.44C179.776 236.667 179.323 237.733 178.416 238.64C177.509 239.547 176.443 240 175.216 240H171.936C170.656 240 169.563 239.573 168.656 238.72C167.803 237.813 167.349 236.72 167.296 235.44V234.8C167.296 234.747 167.269 234.72 167.216 234.72L167.056 234.88C163.589 238.827 159.429 240.8 154.576 240.8ZM203.006 214.24V224.16C203.006 225.92 203.806 227.547 205.406 229.04C207.059 230.48 208.926 231.2 211.006 231.2C213.459 231.2 215.406 230.213 216.846 228.24C218.286 226.213 219.006 223.2 219.006 219.2C219.006 211.2 216.339 207.2 211.006 207.2C208.926 207.2 207.059 207.947 205.406 209.44C203.806 210.88 203.006 212.48 203.006 214.24ZM194.926 257.6C193.699 257.6 192.633 257.147 191.726 256.24C190.819 255.333 190.366 254.267 190.366 253.04V202.96C190.366 201.733 190.819 200.667 191.726 199.76C192.633 198.853 193.699 198.4 194.926 198.4H198.126C199.406 198.4 200.499 198.853 201.406 199.76C202.313 200.613 202.793 201.68 202.846 202.96V203.6C202.846 203.653 202.873 203.68 202.926 203.68L203.086 203.52C206.499 199.573 210.606 197.6 215.406 197.6C220.366 197.6 224.313 199.467 227.246 203.2C230.233 206.933 231.726 212.267 231.726 219.2C231.726 225.92 230.179 231.2 227.086 235.04C224.046 238.88 220.153 240.8 215.406 240.8C210.979 240.8 207.033 239.173 203.566 235.92C203.513 235.867 203.459 235.84 203.406 235.84C203.353 235.84 203.326 235.867 203.326 235.92V253.04C203.326 254.267 202.873 255.333 201.966 256.24C201.059 257.147 199.993 257.6 198.766 257.6H194.926ZM245.638 221.92C244.412 221.92 243.345 221.467 242.438 220.56C241.532 219.653 241.078 218.587 241.078 217.36V216.24C241.078 215.013 241.532 213.947 242.438 213.04C243.345 212.133 244.412 211.68 245.638 211.68H258.678C259.158 211.68 259.398 211.44 259.398 210.96V198.16C259.398 196.933 259.825 195.867 260.678 194.96C261.585 194.053 262.652 193.6 263.878 193.6H265.798C267.025 193.6 268.065 194.053 268.918 194.96C269.825 195.867 270.278 196.933 270.278 198.16V210.96C270.278 211.44 270.518 211.68 270.998 211.68H284.038C285.265 211.68 286.332 212.133 287.238 213.04C288.145 213.947 288.598 215.013 288.598 216.24V217.36C288.598 218.587 288.145 219.653 287.238 220.56C286.332 221.467 285.265 221.92 284.038 221.92H270.998C270.518 221.92 270.278 222.16 270.278 222.64V235.44C270.278 236.667 269.825 237.733 268.918 238.64C268.065 239.547 267.025 240 265.798 240H263.878C262.652 240 261.585 239.547 260.678 238.64C259.825 237.733 259.398 236.667 259.398 235.44V222.64C259.398 222.16 259.158 221.92 258.678 221.92H245.638Z" fill="white"/>
<path fill-rule="evenodd" clip-rule="evenodd" d="M130.882 97.0181C128.932 97.0181 127.351 98.5996 127.351 100.551C127.351 102.502 128.932 104.083 130.882 104.083C132.835 104.083 134.417 102.502 134.417 100.551C134.417 98.5996 132.835 97.0181 130.882 97.0181ZM130.687 69.1755C135.119 69.4353 140.889 72.5978 145.767 77.8646L147.843 80.3586L150.442 79.7023L155.116 78.8218L155.684 80.252C156.178 81.2802 156.745 82.2674 157.378 83.2056L158.565 84.7914L158.214 85.2933C158.118 85.5071 158.066 85.7455 158.066 86.0023C158.066 86.9392 158.898 87.8773 159.886 87.8191V87.8204C164.149 87.5618 168.429 87.4257 172.683 87.7511C176.297 88.041 179.875 88.6997 183.354 89.7163C185.607 90.364 187.825 91.1269 190.025 91.9406C190.948 92.282 192.018 91.5601 192.261 90.6771C192.469 89.9148 192.17 89.2297 191.62 88.7922L191.299 88.6114L191.845 88.2033C193.149 87.1255 194.341 85.9085 195.389 84.5757L195.51 84.4005L195.956 84.599C208.325 90.7182 216.985 100.55 218.956 111.912L219.021 112.394L219.099 112.354C222.205 110.512 224.748 107.671 226.278 103.985C226.564 103.248 226.78 102.485 226.923 101.708C227.326 99.7167 230.173 99.751 230.554 101.746C231.776 108.171 229.475 114.721 224.12 118.295C222.743 119.216 221.257 119.873 219.723 120.279L219.143 120.4L218.956 121.825C216.985 133.186 208.325 143.018 195.956 149.138L195.445 149.364L195.571 150.62V156.092C195.571 161.43 191.243 165.758 185.906 165.758C180.568 165.758 176.236 161.43 176.236 156.092V155.073L171.678 155.583C169.893 155.716 168.078 155.784 166.246 155.784C164.409 155.784 162.598 155.716 160.813 155.583L156.251 155.073V156.092C156.251 161.43 151.923 165.758 146.586 165.758C141.244 165.758 136.916 161.43 136.916 156.092V150.62L137.042 149.364L136.535 149.138C127.702 144.767 120.758 138.502 116.794 131.138L115.871 129.26L115.225 129.46C114.605 129.587 113.964 129.653 113.31 129.653C108.064 129.653 103.81 125.4 103.81 120.155V113.583C103.81 108.336 108.064 104.083 113.31 104.083C113.964 104.083 114.605 104.15 115.225 104.276L115.862 104.474L115.896 104.387C118.613 98.5102 123.192 93.2624 129.123 89.0226L129.305 88.8988L128.837 88.3363C123.664 81.3911 122.183 73.9343 125.683 70.6964C126.935 69.5395 128.672 69.0579 130.687 69.1755ZM176.327 55.3869V58.3166C174.568 58.4832 173.16 59.0733 172.107 60.0869C171.05 61.1004 170.521 62.3897 170.521 63.9541C170.521 64.8892 170.669 65.6852 170.968 66.342C171.262 66.9995 171.687 67.578 172.246 68.078C172.8 68.5781 173.463 69.018 174.23 69.3973C174.997 69.7766 175.837 70.1517 176.743 70.5218C177.652 70.8925 178.285 71.2859 178.644 71.702C179.008 72.1187 179.186 72.6928 179.186 73.4245C179.186 74.0814 179.008 74.5973 178.644 74.9723C178.285 75.3474 177.791 75.5343 177.158 75.5343C176.301 75.5343 175.634 75.2591 175.166 74.7082C174.702 74.1574 174.468 73.3546 174.468 72.2988H169.786C169.786 74.2156 170.327 75.7591 171.406 76.9302C172.484 78.1012 174.031 78.793 176.05 79.0056V81.8109H178.259V79.0197C179.988 78.8536 181.357 78.2703 182.362 77.2702C183.367 76.2702 183.87 74.9791 183.87 73.3963C183.87 72.4612 183.709 71.6603 183.397 70.9942C183.081 70.3275 182.648 69.7442 182.089 69.2441C181.534 68.7447 180.876 68.298 180.113 67.9046C179.347 67.5112 178.537 67.1313 177.674 66.7661C176.812 66.4003 176.188 66.0161 175.799 65.6135C175.413 65.2109 175.218 64.6667 175.218 63.9823C175.218 63.3064 175.387 62.7757 175.725 62.3921C176.063 62.0079 176.535 61.8161 177.146 61.8161C177.83 61.8161 178.359 62.0753 178.731 62.5931C179.1 63.1115 179.286 63.8523 179.286 64.815H183.977C183.977 63.0564 183.497 61.6047 182.526 60.4619C181.561 59.3191 180.23 58.6223 178.537 58.3723V55.3869H176.327ZM176.881 50C187.963 50 196.944 58.9796 196.944 70.0567C196.944 76.9798 193.435 83.0836 188.098 86.688L187.288 87.1818L185.303 86.5072C183.38 85.9263 181.439 85.4226 179.464 85.0335C175.608 84.2945 171.687 83.9243 167.758 83.9274C166.445 83.9219 165.132 83.9458 163.82 83.9917L162.533 84.0549L161.402 82.8146C158.543 79.3475 156.823 74.9025 156.823 70.0567C156.823 58.9796 165.804 50 176.881 50Z" fill="white"/>
</svg>
